<svg xmlns="http://www.w3.org/2000/svg" xmlns:xlink="http://www.w3.org/1999/xlink" width="500" zoomAndPan="magnify" viewBox="0 0 375 374.999991" height="500" preserveAspectRatio="xMidYMid meet" version="1.0"><defs><g/></defs><g fill="#222222" fill-opacity="1"><g transform="translate(0.0000045, 294.473047)"><g><path d="M 71.953125 2.921875 C 61.441406 2.921875 51.816406 1.691406 43.078125 -0.765625 C 34.347656 -3.234375 26.890625 -6.628906 20.703125 -10.953125 C 14.523438 -15.273438 9.945312 -20.222656 6.96875 -25.796875 L 28.453125 -48.9375 L 31.375 -48.9375 C 36.488281 -42.0625 42.53125 -36.90625 49.5 -33.46875 C 56.46875 -30.03125 64.046875 -28.3125 72.234375 -28.3125 C 79.765625 -28.3125 85.429688 -29.65625 89.234375 -32.34375 C 93.046875 -35.039062 94.953125 -38.898438 94.953125 -43.921875 C 94.953125 -47.828125 93.582031 -51.101562 90.84375 -53.75 C 88.101562 -56.40625 83.664062 -58.472656 77.53125 -59.953125 L 57.171875 -64.84375 C 41.921875 -68.46875 30.785156 -74.019531 23.765625 -81.5 C 16.753906 -88.988281 13.25 -98.492188 13.25 -110.015625 C 13.25 -119.585938 15.6875 -127.90625 20.5625 -134.96875 C 25.445312 -142.039062 32.328125 -147.4375 41.203125 -151.15625 C 50.078125 -154.875 60.421875 -156.734375 72.234375 -156.734375 C 86.085938 -156.734375 97.566406 -154.734375 106.671875 -150.734375 C 115.785156 -146.734375 122.898438 -141.390625 128.015625 -134.703125 L 107.375 -112.390625 L 104.578125 -112.390625 C 100.304688 -117.222656 95.492188 -120.753906 90.140625 -122.984375 C 84.796875 -125.210938 78.828125 -126.328125 72.234375 -126.328125 C 56.984375 -126.328125 49.359375 -121.585938 49.359375 -112.109375 C 49.359375 -108.109375 50.773438 -104.851562 53.609375 -102.34375 C 56.453125 -99.832031 61.453125 -97.789062 68.609375 -96.21875 L 87.5625 -92.03125 C 103.1875 -88.6875 114.597656 -83.316406 121.796875 -75.921875 C 129.003906 -68.535156 132.609375 -58.613281 132.609375 -46.15625 C 132.609375 -36.394531 130.191406 -27.796875 125.359375 -20.359375 C 120.523438 -12.921875 113.550781 -7.179688 104.4375 -3.140625 C 95.332031 0.898438 84.503906 2.921875 71.953125 2.921875 Z M 71.953125 2.921875 "/></g></g></g><g fill="#222222" fill-opacity="1"><g transform="translate(141.809462, 294.473047)"><g><path d="M 22.171875 0 L 22.171875 -215.578125 L 60.796875 -215.578125 L 60.796875 -95.9375 L 64.5625 -95.9375 L 109.046875 -153.8125 L 148.234375 -153.8125 L 148.234375 -150.59375 L 95.9375 -83.109375 L 154.078125 -3.484375 L 154.078125 0 L 113.359375 0 L 64.5625 -64.84375 L 60.796875 -64.84375 L 60.796875 0 Z M 22.171875 0 "/></g></g></g><g fill="#ea9f00" fill-opacity="1"><g transform="translate(296.218787, 294.473047)"><g><path d="M 39.328125 1.25 C 34.398438 1.25 30.050781 0.253906 26.28125 -1.734375 C 22.519531 -3.734375 19.640625 -6.5 17.640625 -10.03125 C 15.640625 -13.570312 14.640625 -17.570312 14.640625 -22.03125 C 14.640625 -26.488281 15.640625 -30.484375 17.640625 -34.015625 C 19.640625 -37.554688 22.519531 -40.347656 26.28125 -42.390625 C 30.050781 -44.429688 34.398438 -45.453125 39.328125 -45.453125 C 44.347656 -45.453125 48.738281 -44.453125 52.5 -42.453125 C 56.257812 -40.460938 59.140625 -37.695312 61.140625 -34.15625 C 63.140625 -30.625 64.140625 -26.628906 64.140625 -22.171875 C 64.140625 -15.378906 61.882812 -9.773438 57.375 -5.359375 C 52.875 -0.953125 46.859375 1.25 39.328125 1.25 Z M 39.328125 1.25 "/></g></g></g></svg>